<?xml version="1.0" encoding="utf-8"?>
<!-- Generator: Adobe Illustrator 16.0.0, SVG Export Plug-In . SVG Version: 6.00 Build 0)  -->
<!DOCTYPE svg PUBLIC "-//W3C//DTD SVG 1.1//EN" "http://www.w3.org/Graphics/SVG/1.1/DTD/svg11.dtd">
<svg version="1.1" id="Layer_1" xmlns="http://www.w3.org/2000/svg" xmlns:xlink="http://www.w3.org/1999/xlink" x="0px" y="0px"
	 width="116.465px" height="46.623px" viewBox="0 0 116.465 46.623" enable-background="new 0 0 116.465 46.623"
	 xml:space="preserve">
<g>
	<g>
		<path fill="#4F4F4F" d="M25.516,11.606h1.17v19.109h-3.185V18.793l-5.499,7.05h-0.436l-5.526-7.05v11.923H8.856V11.606h1.171
			l7.758,9.854L25.516,11.606z"/>
		<path fill="#4F4F4F" d="M43.026,14.438h-8.412v5.036h7.949v2.804h-7.949v5.553h8.575v2.886h-11.76V11.661h11.597V14.438z"/>
		<path fill="#4F4F4F" d="M63.8,11.606h1.17v19.109h-3.185V18.793l-5.499,7.05h-0.436l-5.526-7.05v11.923h-3.185V11.606h1.171
			l7.758,9.854L63.8,11.606z"/>
		<path fill="#4F4F4F" d="M78.234,11.389c3.838,0,7.023,1.606,8.384,5.417H85.23c-1.28-2.967-3.757-4.138-7.023-4.138
			c-4.873,0.082-8.03,3.675-8.03,8.466c0,4.873,3.076,8.548,8.03,8.548c4.546,0,7.595-3.049,7.895-7.541h-7.513v-1.198h8.874
			c0,1.742-0.218,3.348-0.844,4.791c-1.416,3.348-4.464,5.254-8.412,5.254c-5.526,0-9.391-4.111-9.391-9.854
			C68.815,15.444,72.817,11.389,78.234,11.389z"/>
		<path fill="#4F4F4F" d="M99.69,31.015c-5.526,0-9.609-3.947-9.609-9.827s4.165-9.827,9.609-9.827c5.526,0,9.664,3.947,9.664,9.827
			C109.354,26.959,105.379,31.015,99.69,31.015z M99.69,29.736c4.764,0,8.275-3.512,8.275-8.547c0-5.009-3.457-8.521-8.248-8.521
			s-8.248,3.484-8.248,8.521C91.469,26.224,94.954,29.736,99.69,29.736z"/>
	</g>
	<g>
		<path fill="#4F4F4F" d="M11.627,34.675h0.526v3.929h-0.565v-3.057l-1.208,1.519h-0.104l-1.222-1.519v3.057H8.491v-3.929h0.533
			l1.306,1.614L11.627,34.675z"/>
		<path fill="#4F4F4F" d="M14.555,34.675h2.228v0.5h-1.665v1.198h1.609v0.503h-1.609v1.221h1.718v0.5h-2.281V34.675z"/>
		<path fill="#4F4F4F" d="M22.115,34.675h0.526v3.929h-0.565v-3.057l-1.208,1.519h-0.104l-1.222-1.519v3.057h-0.562v-3.929h0.533
			l1.306,1.614L22.115,34.675z"/>
		<path fill="#4F4F4F" d="M25.012,38.604V34.67h1.246c0.375,0,0.674,0.101,0.897,0.304c0.223,0.202,0.334,0.474,0.334,0.815
			c0,0.229-0.057,0.431-0.171,0.607s-0.271,0.304-0.47,0.384c-0.199,0.08-0.484,0.119-0.855,0.119h-0.417v1.705H25.012z
			 M26.159,35.17h-0.583v1.229h0.616c0.229,0,0.405-0.054,0.529-0.162c0.124-0.108,0.186-0.262,0.186-0.463
			C26.907,35.372,26.658,35.17,26.159,35.17z"/>
		<path fill="#4F4F4F" d="M32.305,34.675h0.562v3.929h-0.562v-1.71h-2.208v1.71h-0.562v-3.929h0.562v1.699h2.208V34.675z"/>
		<path fill="#4F4F4F" d="M35.294,34.675h0.562v3.929h-0.562V34.675z"/>
		<path fill="#4F4F4F" d="M39.257,36.958l-0.427-0.259c-0.269-0.164-0.459-0.325-0.573-0.483c-0.113-0.159-0.17-0.341-0.17-0.547
			c0-0.309,0.107-0.561,0.322-0.753c0.215-0.193,0.494-0.29,0.837-0.29c0.328,0,0.629,0.092,0.903,0.276v0.639
			c-0.283-0.272-0.588-0.409-0.914-0.409c-0.184,0-0.334,0.042-0.453,0.127s-0.177,0.194-0.177,0.327
			c0,0.118,0.043,0.228,0.13,0.331c0.087,0.103,0.227,0.21,0.42,0.323l0.43,0.254c0.479,0.286,0.719,0.651,0.719,1.093
			c0,0.315-0.105,0.571-0.316,0.768c-0.211,0.197-0.485,0.295-0.823,0.295c-0.388,0-0.742-0.119-1.061-0.358v-0.714
			c0.304,0.385,0.656,0.577,1.055,0.577c0.176,0,0.323-0.049,0.44-0.147s0.176-0.221,0.176-0.369
			C39.774,37.4,39.602,37.173,39.257,36.958z"/>
		<path fill="#4F4F4F" d="M47.756,36.669h1.319v1.665c-0.483,0.21-0.963,0.315-1.44,0.315c-0.65,0-1.17-0.19-1.56-0.569
			c-0.389-0.38-0.583-0.848-0.583-1.405c0-0.587,0.202-1.076,0.604-1.465c0.403-0.39,0.909-0.585,1.516-0.585
			c0.221,0,0.431,0.024,0.63,0.072s0.45,0.136,0.754,0.263v0.574c-0.469-0.272-0.934-0.408-1.395-0.408
			c-0.429,0-0.791,0.146-1.085,0.438s-0.442,0.652-0.442,1.077c0,0.446,0.147,0.811,0.442,1.094s0.673,0.425,1.136,0.425
			c0.225,0,0.494-0.052,0.807-0.155l0.053-0.017V37.17h-0.756V36.669z"/>
		<path fill="#4F4F4F" d="M53.38,34.619c0.607,0,1.112,0.192,1.516,0.577s0.606,0.866,0.606,1.445c0,0.58-0.204,1.059-0.611,1.439
			c-0.408,0.379-0.921,0.569-1.542,0.569c-0.592,0-1.085-0.19-1.479-0.569c-0.395-0.38-0.592-0.855-0.592-1.428
			c0-0.586,0.199-1.072,0.596-1.457C52.271,34.812,52.772,34.619,53.38,34.619z M53.402,35.153c-0.45,0-0.819,0.141-1.109,0.422
			c-0.289,0.281-0.434,0.641-0.434,1.077c0,0.424,0.146,0.776,0.436,1.058c0.291,0.281,0.654,0.422,1.09,0.422
			c0.438,0,0.804-0.143,1.097-0.43c0.293-0.287,0.44-0.644,0.44-1.072c0-0.416-0.146-0.766-0.44-1.05
			C54.189,35.295,53.829,35.153,53.402,35.153z"/>
		<path fill="#4F4F4F" d="M63.639,34.675h0.565v2.23c0,0.302-0.022,0.53-0.066,0.684s-0.098,0.282-0.163,0.384
			c-0.064,0.102-0.144,0.193-0.238,0.274c-0.311,0.269-0.718,0.402-1.22,0.402c-0.512,0-0.923-0.133-1.232-0.399
			c-0.094-0.083-0.173-0.175-0.238-0.277c-0.065-0.102-0.118-0.228-0.16-0.375c-0.042-0.148-0.063-0.381-0.063-0.698v-2.225h0.565
			v2.23c0,0.369,0.042,0.626,0.126,0.771c0.084,0.145,0.213,0.26,0.385,0.348c0.172,0.087,0.376,0.13,0.61,0.13
			c0.334,0,0.605-0.087,0.816-0.261c0.11-0.094,0.19-0.205,0.239-0.332s0.073-0.346,0.073-0.655V34.675z"/>
		<path fill="#4F4F4F" d="M67.511,36.958l-0.427-0.259c-0.269-0.164-0.459-0.325-0.573-0.483c-0.113-0.159-0.17-0.341-0.17-0.547
			c0-0.309,0.107-0.561,0.322-0.753c0.215-0.193,0.494-0.29,0.837-0.29c0.328,0,0.629,0.092,0.903,0.276v0.639
			c-0.283-0.272-0.588-0.409-0.914-0.409c-0.184,0-0.334,0.042-0.453,0.127s-0.177,0.194-0.177,0.327
			c0,0.118,0.043,0.228,0.13,0.331c0.087,0.103,0.227,0.21,0.42,0.323l0.43,0.254c0.479,0.286,0.719,0.651,0.719,1.093
			c0,0.315-0.105,0.571-0.316,0.768c-0.211,0.197-0.485,0.295-0.823,0.295c-0.388,0-0.742-0.119-1.061-0.358v-0.714
			c0.304,0.385,0.656,0.577,1.055,0.577c0.176,0,0.323-0.049,0.44-0.147s0.176-0.221,0.176-0.369
			C68.029,37.4,67.856,37.173,67.511,36.958z"/>
		<path fill="#4F4F4F" d="M70.731,34.675h2.228v0.5h-1.665v1.198h1.609v0.503h-1.609v1.221h1.718v0.5h-2.281V34.675z"/>
		<path fill="#4F4F4F" d="M75.184,38.604v-3.929h0.984c0.397,0,0.713,0.099,0.946,0.295s0.35,0.463,0.35,0.799
			c0,0.229-0.057,0.426-0.171,0.593c-0.115,0.167-0.279,0.292-0.492,0.374c0.125,0.083,0.248,0.195,0.368,0.338
			c0.12,0.142,0.289,0.391,0.506,0.745c0.137,0.223,0.247,0.391,0.329,0.503l0.208,0.281h-0.669l-0.171-0.259
			c-0.005-0.009-0.017-0.025-0.034-0.048l-0.109-0.155l-0.174-0.287l-0.188-0.307c-0.116-0.162-0.223-0.29-0.319-0.385
			c-0.097-0.096-0.184-0.164-0.262-0.207c-0.078-0.042-0.209-0.063-0.393-0.063h-0.146v1.71H75.184z M75.915,35.153h-0.168v1.241
			h0.213c0.285,0,0.48-0.024,0.586-0.073s0.188-0.123,0.248-0.221c0.059-0.099,0.089-0.21,0.089-0.336
			c0-0.124-0.033-0.236-0.099-0.336s-0.158-0.171-0.277-0.212C76.388,35.174,76.19,35.153,75.915,35.153z"/>
		<path fill="#4F4F4F" d="M85.48,36.669h1.319v1.665c-0.483,0.21-0.963,0.315-1.44,0.315c-0.65,0-1.17-0.19-1.56-0.569
			c-0.389-0.38-0.583-0.848-0.583-1.405c0-0.587,0.202-1.076,0.604-1.465c0.403-0.39,0.909-0.585,1.516-0.585
			c0.221,0,0.431,0.024,0.63,0.072s0.45,0.136,0.754,0.263v0.574c-0.469-0.272-0.934-0.408-1.395-0.408
			c-0.429,0-0.791,0.146-1.085,0.438s-0.442,0.652-0.442,1.077c0,0.446,0.147,0.811,0.442,1.094s0.673,0.425,1.136,0.425
			c0.225,0,0.494-0.052,0.807-0.155l0.053-0.017V37.17H85.48V36.669z"/>
		<path fill="#4F4F4F" d="M89.193,38.604v-3.929h0.984c0.397,0,0.713,0.099,0.946,0.295s0.35,0.463,0.35,0.799
			c0,0.229-0.057,0.426-0.171,0.593c-0.115,0.167-0.279,0.292-0.492,0.374c0.125,0.083,0.248,0.195,0.368,0.338
			c0.12,0.142,0.289,0.391,0.506,0.745c0.137,0.223,0.247,0.391,0.329,0.503l0.208,0.281h-0.669l-0.171-0.259
			c-0.005-0.009-0.017-0.025-0.034-0.048l-0.109-0.155l-0.174-0.287l-0.188-0.307c-0.116-0.162-0.223-0.29-0.319-0.385
			c-0.097-0.096-0.184-0.164-0.262-0.207c-0.078-0.042-0.209-0.063-0.393-0.063h-0.146v1.71H89.193z M89.924,35.153h-0.168v1.241
			h0.213c0.285,0,0.48-0.024,0.586-0.073s0.188-0.123,0.248-0.221c0.059-0.099,0.089-0.21,0.089-0.336
			c0-0.124-0.033-0.236-0.099-0.336s-0.158-0.171-0.277-0.212C90.397,35.174,90.2,35.153,89.924,35.153z"/>
		<path fill="#4F4F4F" d="M95.792,34.619c0.607,0,1.112,0.192,1.516,0.577s0.606,0.866,0.606,1.445c0,0.58-0.204,1.059-0.611,1.439
			c-0.408,0.379-0.921,0.569-1.542,0.569c-0.592,0-1.085-0.19-1.479-0.569c-0.395-0.38-0.592-0.855-0.592-1.428
			c0-0.586,0.199-1.072,0.596-1.457C94.683,34.812,95.185,34.619,95.792,34.619z M95.814,35.153c-0.45,0-0.819,0.141-1.109,0.422
			c-0.289,0.281-0.434,0.641-0.434,1.077c0,0.424,0.146,0.776,0.436,1.058c0.291,0.281,0.654,0.422,1.09,0.422
			c0.438,0,0.804-0.143,1.097-0.43c0.293-0.287,0.44-0.644,0.44-1.072c0-0.416-0.146-0.766-0.44-1.05
			C96.602,35.295,96.241,35.153,95.814,35.153z"/>
		<path fill="#4F4F4F" d="M102.895,34.675h0.565v2.23c0,0.302-0.022,0.53-0.066,0.684s-0.098,0.282-0.163,0.384
			c-0.064,0.102-0.144,0.193-0.238,0.274c-0.311,0.269-0.718,0.402-1.22,0.402c-0.512,0-0.923-0.133-1.232-0.399
			c-0.094-0.083-0.173-0.175-0.238-0.277c-0.065-0.102-0.118-0.228-0.16-0.375c-0.042-0.148-0.063-0.381-0.063-0.698v-2.225h0.565
			v2.23c0,0.369,0.042,0.626,0.126,0.771c0.084,0.145,0.213,0.26,0.385,0.348c0.172,0.087,0.376,0.13,0.61,0.13
			c0.334,0,0.605-0.087,0.816-0.261c0.11-0.094,0.19-0.205,0.239-0.332s0.073-0.346,0.073-0.655V34.675z"/>
		<path fill="#4F4F4F" d="M105.764,38.604V34.67h1.246c0.375,0,0.674,0.101,0.897,0.304c0.223,0.202,0.334,0.474,0.334,0.815
			c0,0.229-0.057,0.431-0.171,0.607s-0.271,0.304-0.47,0.384c-0.199,0.08-0.484,0.119-0.855,0.119h-0.417v1.705H105.764z
			 M106.911,35.17h-0.583v1.229h0.616c0.229,0,0.405-0.054,0.529-0.162c0.124-0.108,0.186-0.262,0.186-0.463
			C107.659,35.372,107.41,35.17,106.911,35.17z"/>
	</g>
</g>
</svg>
